<?xml version="1.0" encoding="UTF-8"?>
<svg xmlns="http://www.w3.org/2000/svg" width="240" height="240" viewBox="0 0 240 240" fill="none">
  <path d="M152.52 210.925C152.685 211.091 152.795 211.369 152.85 211.313C153.346 211.313 154.338 211.147 154.338 211.147L155.33 210.702L158.141 209.592C158.141 209.592 165.25 206.205 165.25 206.15C165.306 206.15 166.518 205.484 166.518 205.484L167.179 205.206L167.951 204.651L169.218 203.873L170.707 203.041L172.635 201.764L175.997 199.376L177.595 198.099L179.965 196.378L182.115 194.768L183.162 193.991L184.595 192.658L186.083 191.159L188.452 188.605L191.208 185.94L194.405 182.221L196.168 179.889L196.774 179.056L198.648 176.724L202.285 171.45L203.333 169.728L205.758 164.843L207.135 162.178L209.505 157.347L210.773 154.405L212.095 150.074C212.095 150.074 213.749 144.134 214.631 141.024C214.741 140.691 214.796 140.358 214.575 140.025C214.079 139.303 213.694 138.415 213.198 137.582C212.977 137.193 212.591 136.749 212.371 136.416C212.15 136.083 211.489 135.25 211.269 134.973C210.993 134.64 210.718 134.417 210.387 134.14C209.615 133.418 208.954 132.696 208.293 132.252C207.962 132.086 207.686 131.864 207.411 131.641C205.427 130.087 203.388 128.865 201.128 127.866C200.191 127.477 199.199 127.089 198.207 126.756C197.546 126.534 196.389 126.256 195.672 126.145C195.231 126.089 194.901 126.089 194.57 126.256C194.239 126.478 194.239 126.978 194.184 127.422C194.074 128.643 194.019 130.031 193.909 131.253C193.798 132.53 193.688 133.807 193.633 135.139C193.523 136.305 193.468 137.471 193.357 138.637C193.192 140.192 192.972 141.691 192.696 143.245C192.145 146.077 191.539 148.908 190.988 151.74C190.822 152.517 190.712 153.35 190.436 154.072C189.94 155.293 189.555 156.515 189.334 157.792C188.783 160.456 187.846 163.01 186.909 165.564C186.193 167.619 185.421 169.784 184.264 171.616C184.154 171.727 184.099 171.894 184.099 172.005C183.548 173.337 182.996 174.614 182.445 175.947C182.06 176.779 181.508 177.557 181.178 178.39C180.737 179.444 180.131 180.444 179.524 181.388C178.532 182.942 177.485 184.441 176.659 186.051C176.052 187.162 175.391 188.217 174.675 189.272C174.454 189.549 174.289 189.827 174.123 190.049C173.517 190.937 173.021 191.826 172.36 192.658C171.147 194.213 169.825 195.823 168.557 197.322C167.73 198.266 166.849 199.154 165.967 200.098C165.195 200.931 164.424 201.764 163.597 202.596C163.432 202.763 163.211 202.93 163.046 203.096C162.605 203.485 162.054 203.873 161.668 204.318C160.676 205.317 159.574 206.316 158.417 207.149C157.865 207.482 157.369 207.815 156.929 208.26C155.551 209.259 154.118 210.092 152.52 210.925Z" fill="#BD1B21"></path>
  <path d="M215.787 134.584C215.842 134.584 215.842 134.473 215.842 134.362C215.898 134.14 215.898 133.695 215.898 133.695L216.559 127.477L217 121.647V115.873V114.985L216.338 108.434C216.338 108.434 215.567 102.548 214.961 99.4948C214.74 98.44 214.079 97.8847 213.197 97.4406C212.922 97.274 212.591 97.163 212.26 97.0519C211.654 96.8299 210.938 96.5523 210.276 96.3857C208.788 95.9971 207.41 95.5529 205.922 95.2753C204.159 94.9977 202.395 94.7756 200.632 94.609C199.144 94.498 197.711 94.4425 196.278 94.387C195.12 94.387 194.404 94.387 193.247 94.387C192.64 94.387 191.979 94.387 191.704 94.7756C191.428 95.1642 191.593 95.886 191.759 96.5523C191.979 97.9958 192.2 98.7176 192.42 100.106C193.136 104.325 193.853 108.489 194.018 112.764C194.073 114.707 194.184 116.595 194.294 118.538C194.294 119.094 194.294 119.427 194.294 119.982C194.294 120.315 194.404 120.648 194.514 120.926C194.68 121.203 194.955 121.203 195.231 121.314C195.616 121.425 195.947 121.481 196.278 121.536C196.664 121.647 197.325 121.759 197.821 121.925C199.529 122.48 201.293 123.091 202.946 123.757C204.104 124.201 205.206 124.923 206.308 125.478C206.418 125.534 206.529 125.645 206.694 125.7C207.355 126.2 208.017 126.7 208.678 127.144C210.221 128.254 211.764 129.365 212.977 130.919C213.197 131.197 213.473 131.475 213.748 131.752C214.189 132.141 214.961 133.64 215.512 134.306C215.622 134.528 215.732 134.584 215.787 134.584Z" fill="#BD1B21"></path>
  <path d="M172.358 64.8504C172.965 64.7949 173.461 64.7949 173.901 64.7394C174.232 64.6839 174.563 64.6839 174.673 64.3507C174.838 64.0176 174.563 63.629 174.453 63.4624C174.397 63.1848 173.24 61.2416 173.24 61.2416L172.138 59.5205L167.564 52.9135L166.627 51.8031L165.8 50.5262L164.312 48.8605L160.62 44.8076L159.021 43.253L153.29 37.923L148.605 34.2587L146.897 33.3704L141.386 29.9836L137.528 27.8738L136.811 27.5407L133.67 26.3748L128.985 24.5981L128.655 24.4871L127.112 24.0985L126.726 24.0429L125.403 23.7098L122.648 23.2101L121.325 23.1546L118.845 22.7104L115.869 22.4884L114.822 22.3773H112.948L109.862 22.4884L106.775 22.8215L104.406 22.877L102.311 23.0991L100.162 23.5432L98.5087 24.0429L95.8633 24.5426H95.2571L92.7771 25.4309L91.3442 25.8196L90.4624 26.3748L88.313 26.9855L87.2659 27.5962L85.9432 28.0959L82.7467 29.4284L78.6685 31.0385L77.3458 31.7047L74.48 33.2593L72 34.8694L69.6853 36.0909L68.8586 36.5905L66.3235 37.923L65.9377 38.2006L63.0168 40.477L60.647 42.0871L60.2061 42.4202L57.4505 44.5855L56.5136 45.3628C56.5136 45.3628 55.0256 46.6397 55.0256 46.8063L56.0727 46.4732L57.9465 45.8069C58.0016 45.8069 58.3323 45.8624 58.3323 45.8624L60.9776 44.752H61.3634L64.2843 43.5861L65.8275 43.0864C65.8275 43.1419 67.3706 42.5312 67.3706 42.5312L69.5751 41.7539L74.8658 39.6997H75.3618L78.0622 38.7558L80.2116 37.8675L80.5423 38.0896C80.5423 38.0896 84.6205 38.2006 84.6756 38.2006L87.321 38.4227L87.3761 38.4782L92.6668 38.9224L92.7219 38.8669L100.052 39.2555L100.107 39.4221L102.697 41.6984H102.918L105.563 44.3079L105.783 44.1968L109.421 44.3079L109.586 44.1968L118.79 44.752L118.845 44.9741L122.923 47.3615H123.088L130.308 50.9148L130.363 51.3034L134.441 49.6934L140.449 51.7476L141.441 53.4132L143.755 53.3577L145.85 55.7451H146.07L147.778 57.6883L147.834 57.7993H148.054L152.794 58.9097L154.557 61.6302L158.966 63.2403C158.966 63.2403 163.651 64.4618 166.076 64.7394C168.17 65.0725 170.705 64.9615 172.358 64.8504Z" fill="#BD1B21"></path>
  <path d="M213.252 92.8886C213.087 92.1669 212.591 90.7789 212.591 90.7789L212.315 90.0016L212.095 89.0577L211.323 86.7259L210.607 84.6716L208.347 79.6193L207.355 77.1208L206.032 74.2893L204.489 71.7354L204.158 71.0136L203.111 68.9594L202.174 67.3493L201.734 66.7941L195.175 57.8553C195.175 57.8553 194.514 57.078 194.238 56.7449C194.073 56.5228 194.018 56.4117 193.853 56.4117H193.797C193.797 56.4117 191.758 59.743 190.932 60.6868C190.105 61.6307 188.397 63.1852 188.397 63.1852C188.397 63.1852 186.964 64.3512 186.743 64.5732C186.523 64.7398 185.42 65.4616 185.42 65.4616L183.932 66.3499C183.932 66.3499 182.775 66.8496 182.61 66.9606C182.444 67.0161 182.224 67.1272 182.114 67.2382C182.004 67.4048 181.948 67.5158 182.004 67.7379C182.059 67.96 182.114 68.1265 182.224 68.2931C182.83 69.5701 183.381 70.9026 184.043 72.124C185.035 73.9562 185.641 75.9549 186.523 77.8981C186.798 78.5089 187.074 79.1751 187.294 79.8414C187.845 81.5625 188.397 83.2836 188.948 84.9492C189.168 85.7265 189.444 86.4483 189.664 87.2256C189.885 88.0028 190.05 88.7246 190.27 89.5019C190.381 90.0016 190.711 90.2237 191.262 90.2237C191.758 90.2237 192.254 90.2237 192.75 90.1681C194.514 90.1126 196.277 90.0571 198.041 90.0016C198.537 90.0016 202.064 90.3347 202.064 90.3347C202.064 90.3347 203.332 90.4457 203.938 90.5568C205.261 90.7789 206.583 91.112 207.906 91.3896C209.008 91.6117 210.166 92.0003 211.213 92.5C211.709 92.7221 212.26 92.8886 212.811 93.0552C212.976 93.1107 213.252 93.1662 213.307 93.1107C213.197 93.1662 213.252 92.9997 213.252 92.8886Z" fill="#BD1B21"></path>
  <path d="M190.27 53.3573C190.215 53.0796 189.774 52.4134 189.774 52.4134L189.444 51.8027L188.507 50.6923L187.845 49.8039L186.633 48.638C186.633 48.638 186.357 48.4159 186.247 48.3049C184.153 46.5838 179.964 43.197 179.964 43.1415L178.807 42.1977L176.658 40.2544L165.801 33.703L157.148 29.5945C157.148 29.5945 152.629 27.8179 152.574 27.8179L150.92 27.2627L145.299 25.3195L141.331 24.3201L137.473 23.4873L136.867 23.4318L136.591 23.7094L136.757 23.8759C136.757 23.8759 137.143 24.0425 137.363 24.1535C138.52 24.6532 139.733 25.0419 140.945 25.5415C141.717 25.8747 142.433 26.2633 143.26 26.4854C143.811 26.6519 144.307 26.874 144.803 27.1516C146.622 28.2065 148.44 29.2614 150.259 30.3718C151.361 31.0381 152.353 31.7598 153.29 32.6481C154.007 33.3144 154.723 33.9251 155.605 34.4248C155.991 34.6469 156.266 34.98 156.652 35.2576C156.817 35.4242 157.038 35.5907 157.203 35.7573C158.25 36.6456 159.408 37.4229 160.4 38.4223C161.392 39.5327 162.494 40.5876 163.541 41.5869C164.533 42.5863 165.58 43.5857 166.407 44.6961C167.123 45.6399 167.84 46.5282 168.666 47.361C170.265 48.9156 171.477 50.8033 172.91 52.4689C173.075 52.691 173.186 52.9131 173.351 53.1907C174.288 54.6342 175.114 56.1888 176.217 57.5213C176.988 58.4651 177.705 59.4645 178.201 60.5749C178.531 61.2411 178.972 61.8519 179.413 62.4626C179.634 62.8512 180.075 63.0178 180.295 62.9623C180.515 62.9623 180.901 62.7402 180.901 62.7402L181.673 62.4071C181.673 62.4071 182.665 61.9629 183.051 61.7963C183.381 61.6298 184.098 61.2411 184.318 61.0191C184.539 60.797 185.586 60.0752 186.192 59.52C186.743 58.9648 187.9 57.6323 187.9 57.6323L188.727 56.5219L190.16 54.079C190.05 54.1901 190.325 53.6349 190.27 53.3573Z" fill="#BD1B21"></path>
  <path d="M185.751 89.89C185.145 88.0578 184.704 86.3367 184.043 84.5601C183.492 83.1165 183.106 81.562 182.39 80.174C182.004 79.3412 181.783 78.3973 181.453 77.509C181.287 77.0648 181.067 76.6207 180.902 76.1765C180.075 73.9002 179.028 72.0125 177.926 69.8472C177.87 69.7361 177.815 69.6251 177.705 69.403C177.595 69.1809 177.54 69.0144 177.264 68.8478C176.989 68.6812 176.768 68.7923 176.272 68.8478C175.335 68.9588 174.178 69.0699 173.682 69.0699C173.241 69.0699 171.422 69.2364 169.934 69.3475L169.659 69.2364H168.722H167.895L163.211 68.6257C161.502 68.4036 157.589 67.4043 157.589 67.4043L154.724 66.4049L151.196 65.1835L150.921 65.35L145.355 64.9059L145.189 65.0169L142.048 62.6295H141.717L139.788 60.8529L139.733 60.4642L137.474 60.1311L137.253 60.2421L135.49 59.6314L135.269 59.4649L131.191 59.7425L127.498 58.2434L114.713 58.9097L114.492 58.7986L112.067 58.9652L111.792 59.1317L105.509 59.6314L105.344 59.4649L96.3603 64.6838L96.2501 65.0724L95.8643 65.4611L95.8092 65.2945L91.29 64.8503L91.0145 64.9614L83.0784 65.0169L82.9131 64.9059L80.6535 64.8503L79.937 64.4617L71.6152 70.9576L71.5601 71.1241L68.6391 73.456L65.3876 71.9014L65.1671 71.9569L63.9547 71.6238C63.9547 71.6238 57.9475 73.1784 58.0026 73.2339C58.0577 73.2894 52.3812 72.3456 52.3812 72.3456L51.9954 71.9569L50.9483 73.0673L48.6887 74.1778L48.6336 74.3443L44.1696 77.7866L37.7766 82.3948L30.6121 87.7802L27.3605 90.1676L27.1952 91.5556L25.8174 94.7203L25.2663 97.4408L24.3845 102.937L23.8334 105.325L23.6129 108.212L22.8414 114.152L22.5107 127.255L22.8414 128.033L23.0618 131.641C23.0618 131.641 23.1169 132.252 23.2822 132.308L39.1544 115.763L44.39 113.653L48.7438 113.431L51.3892 110.377L51.6648 109.822L51.9954 109.988L59.1599 109.156L59.4906 108.934H62.136L62.5218 109.1L63.4035 107.934L66.6 105.88L70.0169 103.493L79.6615 103.604L79.7166 103.826L83.4642 104.159L86.4402 103.548L91.8412 97.996H91.9514L96.2501 93.8875L102.698 93.0547L102.974 92.8881L103.249 93.1657L106.611 94.7758L106.832 94.5537L109.808 94.1651L109.973 93.9985L112.728 93.5544L112.949 93.3878L115.98 95.9973L116.145 95.7752L122.318 95.6641L122.869 95.2755L127.829 95.4976L128.105 95.6086L128.876 95.4421L128.986 95.22L130.97 94.3317H131.191L133.506 93.2768L133.726 93.0547L136.151 92.1108L136.316 91.8332L143.095 89.2238L143.15 89.1127L144.363 88.7241L144.638 88.4465L144.969 88.8351L146.953 89.779H147.559L149.764 91.0004L149.929 90.7783L150.59 90.4452H150.645L151.748 89.9455L151.803 89.89L153.401 89.5014L157.479 90.5563L158.361 90.3342L159.077 90.8339L162.053 91.278L164.974 92.3884L166.683 92.2774L167.234 92.666L167.675 92.3884C167.675 92.3884 173.406 91.6667 176.327 91.4446C178.201 91.278 180.075 91.1115 181.949 90.8894C182.996 90.7784 184.043 90.6673 185.09 90.5563C185.641 90.7783 185.972 90.5563 185.751 89.89Z" fill="#BD1B21"></path>
  <path d="M189.94 119.593C189.94 119.205 189.885 118.927 189.83 118.538C189.774 117.428 189.719 116.317 189.664 115.207C189.664 114.818 189.609 114.485 189.554 114.097C189.444 112.709 189.444 111.321 189.278 109.933C189.058 108.156 188.838 106.435 188.562 104.658C188.342 103.326 188.121 101.938 187.846 100.605C187.57 99.2172 187.35 97.8847 187.074 96.4967C186.798 95.0532 186.468 94.8866 185.035 95.0532C184.925 95.0532 184.814 95.1087 184.704 95.1087C184.153 95.2197 183.437 95.2753 182.886 95.3863C180.075 95.7749 177.429 95.886 174.564 96.2191L166.462 99.0506L154.779 98.7175L153.511 98.2734V98.4954L150.094 101.049L149.598 101.105L146.898 103.659L146.732 104.047L139.733 104.991L133.34 109.988H132.679L129.262 111.987L127.884 112.153L126.561 113.319L126.231 113.042L119.728 112.598L118.57 113.875V114.097L112.949 120.315L112.894 120.648L112.673 120.704L105.509 128.976L103.525 129.032L103.359 129.254L97.4624 130.309H97.0216C97.0216 130.309 96.9113 130.586 96.8562 130.586C96.8011 130.586 87.1566 136.027 87.1566 136.027L82.8027 135.528L81.8658 135.861L77.512 135.583L73.2133 140.08L70.6231 140.58L69.135 140.524L67.647 141.191L66.7652 141.08L66.8204 141.246L61.4745 145.41L60.9785 145.521L52.6015 152.073L52.6567 152.461L47.4762 165.064L47.6966 165.62L39.1543 166.397L36.2885 168.84L36.0129 169.728L39.8156 175.058L42.6263 179.389L45.0513 182.498L49.0193 186.828C49.0193 186.828 49.0193 187.106 49.1295 187.161C49.1846 187.217 49.6806 187.217 49.6806 187.217C49.6806 187.217 52.0504 187.994 52.0504 188.05L54.9713 188.994L55.0265 189.16L55.302 189.105L60.1518 190.992H60.5376L60.8132 191.326H61.2541C61.3092 191.326 62.4114 192.103 62.4114 192.103L64.4506 190.992H64.5608L65.4426 190.382L72.7724 192.214L78.1183 189.438L90.0224 188.272L94.8722 180.332C95.6438 179.555 97.0216 178.112 97.0216 178.112H97.1869C97.1869 178.112 98.8402 176.557 98.8953 176.502C98.8953 176.446 98.8953 176.279 98.8953 176.279L101.982 173.448L103.415 171.949C103.415 171.949 103.745 171.782 103.745 171.727C103.8 171.727 105.399 170.006 105.399 170.006L106.721 168.618L107.052 168.562L106.721 167.341L108.099 162.233L110.799 161.456L110.91 161.345L111.681 161.178V160.734L115.264 154.904L115.594 154.738L117.082 151.851L119.507 150.463L119.838 150.074L120.334 150.129C120.334 150.129 121.767 149.297 121.822 149.297H121.987L124.632 148.131L124.853 147.798L133.616 143.745L134.167 143.689L134.277 143.189L134.608 142.912L135.489 139.858L138.245 138.637L141.442 138.248L144.362 136.194L148.496 136.36L148.882 136.693L149.102 136.416L154.889 133.806L154.834 133.029L156.211 130.364L159.077 129.587L159.243 129.42L163.156 128.587L164.644 126.811L164.864 126.755C164.864 126.755 165.746 125.867 165.801 125.867L168.501 126.256L168.612 126.367L170.1 126.589L170.981 126.7C170.981 126.7 174.894 124.868 176.548 124.201C177.264 123.924 177.925 123.757 178.587 123.535C179.524 123.202 180.405 122.869 181.342 122.591C181.838 122.425 182.224 122.314 182.72 122.203L184.539 121.87L186.688 121.536L187.846 121.481C187.846 121.481 188.507 121.425 188.727 121.37C188.948 121.314 189.334 121.314 189.609 121.092C189.885 120.815 189.885 120.593 189.885 120.315C189.94 120.093 189.94 119.926 189.94 119.593Z" fill="#BD1B21"></path>
  <path d="M189.829 127.311C189.829 126.977 189.884 126.478 189.609 126.2C189.388 125.923 189.058 125.867 188.837 125.867C188.617 125.867 187.625 125.978 187.625 125.978L185.916 126.256C185.696 126.256 185.53 126.311 185.365 126.367C184.373 126.589 183.326 126.811 182.334 127.089C181.232 127.422 180.074 127.699 179.027 128.199C177.925 128.699 176.657 129.087 175.555 129.642C175.169 129.865 171.422 131.697 169.713 132.53L167.509 134.861L167.454 135.361L167.178 135.25L165.8 135.361L165.69 135.472L161.226 136.971L161.281 137.471L160.84 137.915V138.193L158.746 141.912H158.471L158.415 142.301C158.415 142.301 157.975 143.023 157.534 143.8L148.11 149.907H147.889L146.456 151.129L145.409 155.071L144.472 155.959L140.78 169.617L141.276 171.172L135.82 173.781H134.938L133.891 178.556L133.725 178.722L132.403 183.053L132.458 183.275L131.907 186.995L131.686 187.273L131.852 187.606L126.616 195.934L126.23 196.045L124.963 198.044L124.908 198.432L120.444 204.762L115.704 207.593L115.979 207.982C115.979 208.037 115.704 209.925 115.704 209.925L116.145 210.647L115.483 210.869L112.067 212.923L111.736 212.812L106.721 215.81L106.115 216.754C106.115 216.809 108.099 217.032 108.099 217.032L111.35 217.309L113.555 217.42L116.2 217.531L117.357 217.587L119.286 217.642L121.215 217.587L128.269 216.698L132.403 215.977L135.544 215.088L138.961 214.089L143.315 212.368L143.646 212.201L144.858 211.48C144.858 211.48 148.385 209.592 149.983 208.426C152.684 206.372 155.384 204.317 157.864 201.986C158.746 201.153 159.518 200.375 160.4 199.543C161.171 198.765 161.998 197.933 162.769 197.155C162.88 196.989 163.1 196.878 163.155 196.711C163.431 196.045 163.927 195.601 164.368 195.157C164.698 194.823 165.029 194.49 165.304 194.102C165.856 193.269 166.627 192.603 167.344 191.936C167.895 191.381 168.446 190.77 168.887 190.104C169.713 188.938 170.485 187.717 171.257 186.495C172.304 184.885 173.461 183.331 174.343 181.665C175.335 179.888 176.272 178.056 177.264 176.28C178.09 174.781 178.972 173.226 179.633 171.671C180.736 169.006 181.838 166.397 182.885 163.732C183.987 160.9 184.814 157.958 185.586 155.015C186.137 152.85 186.522 150.574 187.294 148.464C187.404 148.186 187.459 147.909 187.514 147.576C187.79 145.799 188.121 143.967 188.396 142.19C188.672 140.469 188.892 138.803 189.113 137.082C189.278 135.916 189.498 134.75 189.554 133.584C189.719 131.974 189.774 130.364 189.829 128.754C189.829 128.588 189.829 128.199 189.829 128.199C189.829 128.199 189.829 127.588 189.829 127.311Z" fill="#BD1B21"></path>
</svg>
